<svg xmlns="http://www.w3.org/2000/svg" viewBox="0 0 1 1" preserveAspectRatio="none">
  <mask id="heroMask" maskUnits="objectBoundingBox">
    <rect width="1" height="1" fill="black" />
    <g transform="scale(0.000929, 0.00163)">
      <path
        fill="white"
        d="M25.5 0.5H229C242.807 0.5 252.122 14.5053 262.964 23.0551C265.615 25.1456 269.049 26.5 273.5 26.5H802.5C807.151 26.5 810.696 24.8564 813.397 22.3957C823.328 13.3492 832.624 0.5 846.057 0.5H1051C1064.81 0.5 1076 11.6929 1076 25.5V55.5C1076 69.3071 1061.24 80.9459 1056.84 94.0317C1056 96.5311 1055.5 99.4921 1055.5 103V401.5C1055.5 405.8 1056.02 409.389 1056.89 412.386C1060.89 426.099 1076 425.215 1076 439.5V542.282C1076 553.172 1071.18 562 1060.29 562C1053.85 562 1043.8 565.148 1040.11 570.431L1034.96 577.811C1030.29 584.509 1022.65 588.5 1014.48 588.5C996.63 588.5 968.303 588.5 939.5 588.5H847C833.193 588.5 822.121 602.068 810.51 609.539C806.614 612.046 801.977 613.5 797 613.5H116.5C102.693 613.5 93.4587 600.219 83.9849 590.175C81.3528 587.384 77.7988 585.5 73 585.5H25.4902C11.6831 585.5 0.499985 574.307 0.499985 560.5V345.5C0.499985 331.804 12.9565 321.815 23.6702 313.224L23.9304 313.015C28.5484 309.312 32 303.775 32 295.5V189.5C32 180.444 28.456 174.425 23.7454 170.425C13.2207 161.488 0.499985 151.307 0.499985 137.5V25.5C0.499985 11.6929 11.6929 0.5 25.5 0.5Z"
      />
    </g>
  </mask>

  <rect width="1" height="1" fill="white" mask="url(#heroMask)" />
</svg>
